<?xml version="1.0" encoding="utf-8"?>
<!-- Generator: Adobe Illustrator 19.2.1, SVG Export Plug-In . SVG Version: 6.00 Build 0)  -->
<svg version="1.1" id="Layer_1" xmlns="http://www.w3.org/2000/svg" xmlns:xlink="http://www.w3.org/1999/xlink" x="0px" y="0px"
	 width="20px" height="20px" viewBox="0 0 20 20" style="enable-background:new 0 0 20 20;" xml:space="preserve">
<g>
	<rect x="13" y="1" style="fill:#4EB8D1;" width="3" height="8"/>
</g>
<g>
	<rect x="9" y="3" style="fill:#4EB8D1;" width="3" height="6"/>
</g>
<g>
	<rect x="5" y="5" style="fill:#4EB8D1;" width="3" height="4"/>
</g>
<g>
	<rect x="17" y="4" style="fill:#808080;" width="3" height="5"/>
</g>
<g>
	<rect x="1" y="6" style="fill:#808080;" width="3" height="3"/>
</g>
<path style="fill:#999999;" d="M11,11.1v4.2l1.6,1.8l-0.8,0.6L10,15.7v-4.6c-2.2,0.3-3.8,2.1-3.8,4.4c0,2.5,2,4.4,4.4,4.4
	c2.5,0,4.4-2,4.4-4.4C15,13.2,13.3,11.3,11,11.1z"/>
<polyline style="fill:none;stroke:#4EB8D1;stroke-miterlimit:10;" points="17.4,17.6 19.9,15.4 17.4,12.9 "/>
<polyline style="fill:none;stroke:#4EB8D1;stroke-miterlimit:10;" points="3.9,12.9 1.4,15.4 3.9,17.6 "/>
<line style="fill:none;stroke:#4EB8D1;stroke-miterlimit:10;" x1="19.9" y1="15.4" x2="16.2" y2="15.4"/>
<line style="fill:none;stroke:#4EB8D1;stroke-miterlimit:10;" x1="5.1" y1="15.4" x2="1.4" y2="15.4"/>
</svg>
