<?xml version="1.0" encoding="utf-8"?>
<!-- Generator: Adobe Illustrator 19.2.1, SVG Export Plug-In . SVG Version: 6.00 Build 0)  -->
<svg version="1.1" id="Layer_1" xmlns="http://www.w3.org/2000/svg" xmlns:xlink="http://www.w3.org/1999/xlink" x="0px" y="0px"
	 viewBox="0 0 20 20" style="enable-background:new 0 0 20 20;" xml:space="preserve">
<g>
	<g>
		<path style="fill:#888888;" d="M5,15.4c-1.1,0-2-0.9-2-2v-1.8c0-1.1,0.9-1.9,2-1.9S7,10.5,7,11.6v1.8C7,14.5,6.1,15.4,5,15.4z"/>
		<path style="fill:#888888;" d="M10.1,15.4c-1.1,0-1.9-0.9-1.9-2V6.9c0-1.1,0.9-1.9,1.9-1.9S12,5.8,12,6.9v6.5
			C12,14.5,11.2,15.4,10.1,15.4z"/>
		<path style="fill:#888888;" d="M15.1,15.4c-1.1,0-2-0.9-2-2V2.5c0-1.1,0.9-1.9,2-1.9s1.9,0.9,1.9,1.9v10.9
			C17.1,14.5,16.2,15.4,15.1,15.4z"/>
	</g>
	<g>
		<rect x="2.6" y="17" style="fill:#888888;" width="14.8" height="1.2"/>
		<g>
			<polygon style="fill:#888888;" points="3.1,19.4 0.2,17.6 3.1,15.7 			"/>
		</g>
		<g>
			<polygon style="fill:#888888;" points="16.9,19.4 19.8,17.6 16.9,15.7 			"/>
		</g>
	</g>
</g>
</svg>
